<svg width="888" height="888" viewBox="0 0 888 888" fill="none" xmlns="http://www.w3.org/2000/svg">
<g clip-path="url(#clip0_80412_1524)">
<path d="M712.264 703.782L770.737 716.429C777.693 717.933 783.356 716.422 786.051 712.407C788.371 708.952 788.284 704.047 785.803 698.601L778.737 683.087C777.136 679.931 779.435 675.968 780.618 674.922C848.86 614.653 888 528.911 888 439.68C888 333.971 834.052 235.492 743.685 176.246C739.901 173.766 735.493 172.452 730.941 172.452C723.347 172.452 716.281 176.094 712.034 182.193C709.476 185.865 708.125 190.141 708.125 194.561C708.125 201.931 711.878 208.789 718.164 212.909C795.963 263.919 842.41 348.695 842.41 439.682C842.41 511.541 812.248 582.068 759.659 633.173C758.296 634.498 757.566 634.601 757.377 634.601C757.026 634.601 756.518 634.093 756.148 633.469L749.569 619.017C746.819 612.979 742.857 609.654 738.416 609.654C734.063 609.654 730.09 612.879 727.232 618.731L698.788 677.011C696.01 682.703 695.895 688.648 698.464 693.75C701.027 698.85 705.929 702.41 712.264 703.782Z" fill="#FFF732"/>
<path d="M-6.91381e-05 449.773C-5.98968e-05 555.482 53.9477 653.96 144.317 713.207C148.101 715.687 152.509 717 157.061 717C164.655 717 171.722 713.36 175.966 707.259C178.524 703.584 179.878 699.309 179.878 694.891C179.878 687.521 176.125 680.663 169.838 676.544C92.0395 625.536 45.5926 540.76 45.5926 449.77C45.5926 377.911 75.7542 307.384 128.344 256.279C129.707 254.956 130.436 254.851 130.626 254.851C130.976 254.851 131.485 255.359 131.854 255.983L138.434 270.435C141.183 276.473 145.145 279.799 149.586 279.799C153.939 279.799 157.913 276.573 160.768 270.721L189.219 212.441C191.997 206.75 192.113 200.807 189.545 195.707C186.978 190.607 182.075 187.042 175.741 185.67L117.268 173.023C115.458 172.632 113.728 172.434 112.128 172.434C107.562 172.434 103.946 174.071 101.952 177.045C99.6315 180.501 99.7178 185.403 102.199 190.849L109.265 206.363C110.866 209.519 108.57 213.482 107.384 214.528C39.1404 274.797 -7.6939e-05 360.542 -6.91381e-05 449.773Z" fill="#00FFF0"/>
<circle cx="443.883" cy="695.883" r="152.883" fill="#00FFF0"/>
<path d="M452.121 681.416C430.541 673.02 424.303 667.942 424.303 658.772C424.303 651.434 430.031 642.863 446.174 642.863C460.453 642.863 471.406 648.328 471.501 648.377C472.655 648.973 473.946 649.291 475.227 649.291C478.352 649.291 481.116 647.455 482.263 644.615L486.186 634.882C487.55 631.337 485.482 628.246 482.837 627.137C474.044 623.421 456.863 620.549 456.685 620.519C456.409 620.474 455.445 620.274 455.445 619.18L455.392 605.063C455.392 600.811 451.733 597.351 447.241 597.351H440.204C435.719 597.351 432.06 600.811 432.06 605.068L432.078 619.908C432.078 621.045 430.809 621.54 430.346 621.647C408.657 626.66 395.1 642.079 395.1 661.53C395.1 685.777 415.752 696.736 438.049 704.96C455.875 711.751 463.146 718.638 463.146 728.741C463.146 739.732 452.849 747.41 438.094 747.41C425.495 747.41 408.443 739.661 408.274 739.581C407.184 739.08 406.028 738.824 404.839 738.824C401.594 738.824 398.768 740.729 397.636 743.678L393.893 753.519C392.559 757.195 394.61 760.178 397.235 761.504C407.705 766.797 427.969 769.899 428.868 770.034C429.112 770.068 430.346 770.492 430.346 771.584V786.362C430.346 790.616 434.003 794.075 438.497 794.075H445.768C450.262 794.075 453.921 790.616 453.921 786.362V770.812C453.921 769.357 455.027 769.23 455.255 769.176C478.363 764.138 492.596 747.73 492.596 727.129C492.598 705.964 480.489 692.291 452.121 681.416Z" fill="black"/>
<path d="M443.5 516C344.086 516 263.5 596.587 263.5 695.998C263.5 795.406 344.086 876 443.5 876C542.91 876 623.5 795.409 623.5 695.998C623.5 596.587 542.91 516 443.5 516ZM443.5 834.281C367.124 834.281 305.218 772.368 305.218 695.998C305.218 619.627 367.124 557.717 443.5 557.717C519.871 557.717 581.78 619.627 581.78 695.998C581.78 772.368 519.871 834.281 443.5 834.281Z" fill="#00FFF0"/>
<path d="M443.998 372C543.414 372 624 291.413 624 192.002C624 92.5916 543.414 12 443.998 12C344.588 12.0001 264 92.5895 264 192.002C264.002 291.413 344.588 372 443.998 372ZM443.998 53.7174C520.373 53.7174 582.282 115.632 582.282 192.002C582.282 268.371 520.373 330.283 443.998 330.283C367.629 330.283 305.72 268.371 305.72 192.002C305.722 115.632 367.629 53.7174 443.998 53.7174Z" fill="#F7941D"/>
<path d="M552.03 219.957C537.155 281.435 476.724 318.849 417.053 303.518C357.406 288.192 321.095 225.921 335.976 164.448C350.844 102.964 411.275 65.547 470.928 80.8736C530.596 96.2003 566.904 158.478 552.028 219.958L552.029 219.957L552.03 219.957Z" fill="#F7931A"/>
<ellipse cx="444.001" cy="192.184" rx="141.81" ry="146.12" fill="#F7941D"/>
<path d="M504.54 173.737C507.418 153.956 492.769 143.323 472.738 136.23L479.236 109.435L463.371 105.37L457.045 131.46C452.874 130.39 448.591 129.383 444.334 128.384L450.706 102.122L434.85 98.0577L428.348 124.844C424.897 124.036 421.507 123.238 418.218 122.396L418.236 122.312L396.358 116.695L392.137 134.116C392.137 134.116 403.908 136.89 403.66 137.061C410.084 138.709 411.246 143.082 411.053 146.547L403.651 177.073C404.094 177.189 404.668 177.356 405.301 177.617C404.771 177.482 404.208 177.335 403.624 177.191L393.249 219.953C392.464 221.96 390.471 224.971 385.979 223.828C386.138 224.065 374.448 220.869 374.448 220.869L366.571 239.54L387.217 244.832C391.058 245.822 394.822 246.858 398.528 247.832L391.963 274.935L407.81 278.999L414.312 252.184C418.641 253.392 422.843 254.507 426.956 255.558L420.476 282.246L436.342 286.31L442.906 259.259C469.96 264.522 490.303 262.4 498.865 237.243C505.765 216.988 498.522 205.305 484.289 197.687C494.655 195.229 502.464 188.219 504.546 173.739L504.541 173.735L504.54 173.737ZM468.291 225.994C463.388 246.249 430.217 235.3 419.462 232.554L428.175 196.649C438.928 199.409 473.415 204.871 468.292 225.994L468.291 225.994ZM473.198 173.443C468.725 191.867 441.116 182.507 432.16 180.212L440.059 147.647C449.015 149.943 477.857 154.226 473.199 173.443L473.198 173.443Z" fill="black"/>
</g>
<defs>
<clipPath id="clip0_80412_1524">
<rect width="888" height="888" fill="white"/>
</clipPath>
</defs>
</svg>
